{"title":"Rychly Prachy (Praha - 15.01.2014) - Veronika","uid":9491702,"size":387391721,"categoryP":"porn","categoryS":"movies","magnet":"?xt=urn:btih:98c82fe3e09700db89a0ca12fdb8091bbdf7db5b&amp;dn=Rychly+Prachy+%28Praha+-+15.01.2014%29+-+Veronika&amp;tr=udp%3A%2F%2Ftracker.openbittorrent.com%3A80&amp;tr=udp%3A%2F%2Fopen.demonii.com%3A1337&amp;tr=udp%3A%2F%2Ftracker.coppersurfer.tk%3A6969&amp;tr=udp%3A%2F%2Fexodus.desync.com%3A6969","seeders":2,"leechers":0,"uploader":null,"files":3,"time":1390002592,"description":"\n                Rychly Prachy (Praha - 15.01.2014) - Veronika\n\n\n\nScreen:\n  &lt;a href=&quot;\nhttp://image.bayimg.com/424a7023cfac8f19136d1d3fe2fd2ab12a9e9c97.jpg&quot; rel=&quot;nofollow&quot; target=&quot;_NEW&quot;&gt;\nhttp://image.bayimg.com/424a7023cfac8f19136d1d3fe2fd2ab12a9e9c97.jpg&lt;/a&gt;\n\n\nOficial website:\n  &lt;a href=&quot;\nhttp://rychlyprachy.cz&quot; rel=&quot;nofollow&quot; target=&quot;_NEW&quot;&gt;\nhttp://rychlyprachy.cz&lt;/a&gt;\n\n\nDirect Link:\n  &lt;a href=&quot;\nhttp://rychlyprachy.cz/video72.cz.html&quot; rel=&quot;nofollow&quot; target=&quot;_NEW&quot;&gt;\nhttp://rychlyprachy.cz/video72.cz.html&lt;/a&gt;\n\n\nGeneral\nComplete name                            : Rychly Prachy (Praha - 15.01.2014) - Veronika.wmv\nFormat                                   : Windows Media\nFile size                                : 369 MiB\nDuration                                 : 19mn 36s\nOverall bit rate mode                    : Constant\nOverall bit rate                         : 2 634 Kbps\nMaximum Overall bit rate                 : 2 645 Kbps\nEncoded date                             : UTC 2014-01-15 20:27:28.776\nSfOriginalFPS                            : 300000\n\nVideo\nID                                       : 2\nFormat                                   : VC-1\nFormat profile                           : MP@ML\nCodec ID                                 : WMV3\nCodec ID/Info                            : Windows Media Video 9\nCodec ID/Hint                            : WMV3\nDescription of the codec                 : Windows Media Video 9 - Professional\nDuration                                 : 19mn 36s\nBit rate mode                            : Constant\nBit rate                                 : 2 525 Kbps\nWidth                                    : 640 pixels\nHeight                                   : 480 pixels\nDisplay aspect ratio                     : 4:3\nFrame rate                               : 30.000 fps\nColor space                              : YUV\nChroma subsampling                       : 4:2:0\nBit depth                                : 8 bits\nScan type                                : Progressive\nCompression mode                         : Lossy\nBits/(Pixel*Frame)                       : 0.274\nStream size                              : 354 MiB (96%)\nLanguage                                 : Czech\n\nAudio\nID                                       : 1\nFormat                                   : WMA\nFormat version                           : Version 2\nCodec ID                                 : 161\nCodec ID/Info                            : Windows Media Audio\nDescription of the codec                 : Windows Media Audio 9.2 -  96 kbps, 44 kHz, stereo (A/V) 1-pass CBR\nDuration                                 : 19mn 36s\nBit rate mode                            : Constant\nBit rate                                 : 96.0 Kbps\nChannel(s)                               : 2 channels\nSampling rate                            : 44.1 KHz\nBit depth                                : 16 bits\nStream size                              : 13.5 MiB (4%)\nLanguage                                 : Czech","torrent":{"xt":"urn:btih:98c82fe3e09700db89a0ca12fdb8091bbdf7db5b","amp;dn":"Rychly+Prachy+%28Praha+-+15.01.2014%29+-+Veronika","amp;tr":["udp%3A%2F%2Ftracker.openbittorrent.com%3A80","udp%3A%2F%2Fopen.demonii.com%3A1337","udp%3A%2F%2Ftracker.coppersurfer.tk%3A6969","udp%3A%2F%2Fexodus.desync.com%3A6969"],"infoHash":"98c82fe3e09700db89a0ca12fdb8091bbdf7db5b","infoHashBuffer":{"type":"Buffer","data":[152,200,47,227,224,151,0,219,137,160,202,18,253,184,9,27,189,247,219,91]},"announce":[],"urlList":[]}}